<svg width="107" height="107" viewBox="0 0 107 107" fill="none" xmlns="http://www.w3.org/2000/svg">
<g clip-path="url(#clip0_3_660)">
<circle cx="53.5" cy="53.5" r="53.5" fill="url(#paint0_linear_3_660)"/>
<circle cx="54" cy="54" r="44" fill="url(#paint1_linear_3_660)"/>
<circle cx="54" cy="54" r="39" fill="url(#paint2_linear_3_660)"/>
<g clip-path="url(#clip1_3_660)">
<path d="M51.2655 28.2321C51.5557 27.7584 51.965 27.3691 52.4526 27.1029C52.9402 26.8368 53.4891 26.7032 54.0445 26.7154C54.5999 26.7276 55.1424 26.8852 55.6178 27.1725C56.0933 27.4598 56.4851 27.8668 56.7542 28.3528L63.5884 40.7009L77.3155 43.9924C77.8555 44.1222 78.352 44.3913 78.7555 44.7729C79.159 45.1544 79.4555 45.635 79.6154 46.1669C79.7753 46.6987 79.7929 47.2631 79.6666 47.8039C79.5404 48.3447 79.2745 48.843 78.8957 49.249L69.2624 59.5648L70.3768 73.6354C70.4207 74.1895 70.3186 74.7454 70.0806 75.2476C69.8425 75.7498 69.4769 76.1808 69.0201 76.4976C68.5634 76.8143 68.0316 77.0057 67.4778 77.0526C66.924 77.0995 66.3675 77.0003 65.864 76.7649L53.0756 70.789L40.0368 76.1971C39.5234 76.4101 38.9632 76.4848 38.412 76.4136C37.8608 76.3423 37.3379 76.1278 36.8955 75.7913C36.4531 75.4548 36.1068 75.0081 35.891 74.4959C35.6753 73.9837 35.5977 73.4239 35.666 72.8723L37.3976 58.8642L28.227 48.1376C27.8657 47.7153 27.6215 47.2057 27.5187 46.6595C27.416 46.1133 27.4583 45.5498 27.6414 45.025C27.8246 44.5003 28.1421 44.0329 28.5625 43.6693C28.9828 43.3057 29.4911 43.0587 30.0367 42.953L43.8952 40.2679L51.2655 28.2321Z" fill="url(#paint3_linear_3_660)"/>
</g>
</g>
<defs>
<linearGradient id="paint0_linear_3_660" x1="54" y1="111.5" x2="57" y2="11" gradientUnits="userSpaceOnUse">
<stop offset="0.1021" stop-color="#9C6700"/>
<stop offset="1" stop-color="#FFCB12"/>
</linearGradient>
<linearGradient id="paint1_linear_3_660" x1="81" y1="-66.5" x2="47" y2="126" gradientUnits="userSpaceOnUse">
<stop stop-color="#ECBC10"/>
<stop offset="1" stop-color="#D49029"/>
</linearGradient>
<linearGradient id="paint2_linear_3_660" x1="54" y1="94" x2="60" y2="-6.5" gradientUnits="userSpaceOnUse">
<stop offset="0.1021" stop-color="#ED9F06"/>
<stop offset="1" stop-color="#FFE071"/>
</linearGradient>
<linearGradient id="paint3_linear_3_660" x1="54.0436" y1="26.7154" x2="52.9435" y2="76.751" gradientUnits="userSpaceOnUse">
<stop stop-color="#D59104"/>
<stop offset="1" stop-color="#A26E02"/>
</linearGradient>
<clipPath id="clip0_3_660">
<rect width="107" height="107" fill="white"/>
</clipPath>
<clipPath id="clip1_3_660">
<rect width="61" height="61" fill="white" transform="translate(23 21)"/>
</clipPath>
</defs>
</svg>
